<svg xmlns="http://www.w3.org/2000/svg" viewBox="0 0 128 128" role="img" aria-label="职场回复器">
  <defs>
    <linearGradient id="bg" x1="16" x2="112" y1="18" y2="112" gradientUnits="userSpaceOnUse">
      <stop stop-color="#0f766e"/>
      <stop offset=".58" stop-color="#315c86"/>
      <stop offset="1" stop-color="#b45336"/>
    </linearGradient>
  </defs>
  <rect width="128" height="128" rx="24" fill="#f7f4ec"/>
  <rect x="14" y="14" width="100" height="100" rx="20" fill="url(#bg)"/>
  <path fill="#fffdf8" d="M33 40c0-7.2 5.8-13 13-13h36c7.2 0 13 5.8 13 13v19c0 7.2-5.8 13-13 13H61L44.8 86.6c-2.6 2.3-6.8.5-6.8-3V72.3c-3.1-2.3-5-5.9-5-9.8V40Z"/>
  <path fill="#0f766e" d="M50 45h30a5 5 0 0 1 0 10H50a5 5 0 0 1 0-10Zm0 18h20a5 5 0 0 1 0 10H50a5 5 0 0 1 0-10Z"/>
</svg>
